<svg xmlns="http://www.w3.org/2000/svg" xmlns:xlink="http://www.w3.org/1999/xlink" width="500" zoomAndPan="magnify" viewBox="0 0 375 449.249995" height="599" preserveAspectRatio="xMidYMid meet" version="1.0"><path fill="#f2f2f2" d="M 81.539062 297.90625 C 81.539062 297.90625 80.417969 292.3125 80.417969 292.3125 C 93.585938 281.335938 248.816406 233.769531 314.984375 239.320312 C 316.320312 239.433594 316.683594 241.085938 315.535156 241.773438 C 271.75 267.984375 143.699219 294.636719 81.539062 297.90625 Z M 81.539062 297.90625 " fill-opacity="1" fill-rule="nonzero"/><path fill="#ffffff" d="M 158.253906 193.667969 C 158.253906 193.667969 148.003906 183.867188 148.003906 183.867188 C 147.484375 183.367188 146.691406 183.292969 146.085938 183.679688 C 146.085938 183.679688 141.609375 186.550781 141.609375 186.550781 C 140.753906 187.101562 140.644531 188.308594 141.386719 189.003906 C 141.386719 189.003906 151.230469 198.21875 151.230469 198.21875 C 151.699219 198.652344 152.382812 198.761719 152.960938 198.492188 C 152.960938 198.492188 157.839844 196.207031 157.839844 196.207031 C 158.832031 195.742188 159.046875 194.421875 158.253906 193.667969 Z M 158.253906 193.667969 " fill-opacity="1" fill-rule="nonzero"/><path fill="#b09378" d="M 200.097656 107.707031 C 197.894531 105.125 196.40625 101.964844 196.65625 98.417969 C 197.371094 88.203125 211.59375 90.449219 214.359375 95.605469 C 215.1875 97.152344 215.738281 99.410156 216.007812 101.839844 C 216.785156 102.765625 218.144531 104.835938 218.121094 105.320312 C 218.097656 105.785156 217.402344 106.558594 216.144531 107.183594 C 215.917969 111.035156 214.945312 114.316406 213.222656 114.761719 C 211.796875 115.128906 208.757812 114.226562 205.667969 112.363281 C 205.667969 112.363281 206.207031 116.175781 206.207031 116.175781 C 206.207031 116.175781 208.980469 116.46875 208.980469 116.46875 C 208.980469 116.46875 209.1875 118.542969 209.515625 121.847656 C 210.539062 123.152344 211.898438 124.960938 213.382812 126.929688 C 213.382812 126.929688 213.382812 126.933594 213.382812 126.933594 C 215.71875 130.035156 218.359375 133.546875 220.492188 136.160156 C 225.910156 142.816406 237.070312 136.945312 244.777344 132.894531 C 246.527344 131.972656 248.101562 131.144531 249.386719 130.578125 C 252.417969 127.558594 255.34375 125.265625 258.164062 123.695312 C 259.007812 123.425781 260.449219 123.34375 258.914062 125.589844 C 257.375 127.835938 255.859375 130.269531 256.472656 131.058594 C 256.742188 131.402344 257.234375 131.429688 257.761719 131.457031 C 258.441406 131.496094 259.175781 131.535156 259.570312 132.257812 C 260.039062 133.109375 257.039062 134.128906 250.570312 135.316406 C 250.570312 135.316406 237.238281 144.757812 237.238281 144.757812 C 230.3125 149.023438 223.9375 150.234375 220.492188 149.023438 C 217.675781 148.035156 211.800781 142.109375 211.800781 142.109375 C 212.355469 148.074219 212.816406 155.457031 213.113281 160.230469 C 213.113281 160.230469 213.113281 160.234375 213.113281 160.234375 C 213.191406 161.519531 213.261719 162.617188 213.316406 163.441406 C 213.316406 163.441406 191.636719 164.886719 191.636719 164.886719 C 190.691406 157.332031 189.132812 146.074219 188.164062 139.179688 C 188.164062 139.179688 176.101562 156.671875 176.101562 156.671875 C 166.265625 175.003906 160.992188 184.722656 160.277344 185.820312 C 158.886719 187.964844 159.824219 191.652344 160.457031 194.15625 C 160.558594 194.542969 160.648438 194.902344 160.722656 195.21875 C 159.09375 195.597656 158.527344 194.648438 157.933594 193.644531 C 157.265625 192.511719 156.554688 191.316406 154.226562 191.894531 C 153.324219 192.117188 152.457031 192.417969 151.605469 192.714844 C 148.671875 193.734375 145.972656 194.671875 143.074219 191.996094 C 142.613281 191.574219 142.277344 190.25 143.84375 189.570312 C 147.75 187.875 153.519531 184.707031 154.457031 183.476562 C 155.730469 181.796875 159.6875 172.214844 166.324219 154.730469 C 173.886719 135.621094 188.761719 120.296875 195.25 115.023438 C 195.25 115.023438 195.261719 115.023438 195.261719 115.023438 C 195.261719 115.023438 198.453125 115.359375 198.453125 115.359375 C 198.453125 115.359375 200.097656 107.707031 200.097656 107.707031 Z M 200.097656 107.707031 " fill-opacity="1" fill-rule="nonzero"/><path fill="#b09378" d="M 226.28125 253.910156 C 237.933594 227.074219 243.6875 213.441406 243.542969 213.007812 C 243.476562 212.808594 240.859375 211.320312 236.753906 208.988281 C 228.816406 204.484375 215.320312 196.8125 203.925781 189.15625 C 203.925781 189.15625 223.011719 174.28125 223.011719 174.28125 C 244.21875 193.371094 255.40625 204.816406 256.558594 208.621094 C 257.441406 211.535156 249.613281 226.226562 233.078125 252.691406 C 233.078125 252.691406 242.105469 255.191406 246.542969 256.203125 C 247.636719 256.453125 248.128906 259.410156 244.054688 259.410156 C 241.730469 259.410156 239.253906 259.472656 236.921875 259.527344 C 232.648438 259.628906 228.855469 259.722656 227.421875 259.410156 C 224.601562 258.796875 225.601562 255.484375 226.28125 253.910156 Z M 226.28125 253.910156 " fill-opacity="1" fill-rule="nonzero"/><path fill="#b09378" d="M 181.523438 188.734375 C 181.523438 188.734375 169.234375 223.425781 169.234375 223.425781 C 169.234375 223.425781 144.308594 275.140625 144.308594 275.140625 C 143.285156 277.347656 145.5 278.273438 146.933594 278.589844 C 147.636719 278.742188 161.242188 280.335938 163.214844 279.179688 C 167.53125 276.652344 163.214844 275.621094 163.214844 275.621094 C 163.214844 275.621094 152.71875 271.917969 152.71875 271.917969 C 152.71875 271.917969 202.480469 195.960938 202.480469 195.960938 C 202.480469 195.960938 181.523438 188.734375 181.523438 188.734375 Z M 181.523438 188.734375 " fill-opacity="1" fill-rule="nonzero"/><path fill="#2d2928" d="M 207.828125 89.664062 C 206.320312 89.417969 202.253906 89.246094 201.503906 89.246094 C 201.023438 89.246094 200.507812 89.355469 200.222656 88.917969 C 199.988281 88.558594 200.074219 87.949219 200.003906 87.53125 C 199.925781 87.042969 199.808594 86.5625 199.695312 86.085938 C 199.367188 84.726562 198.867188 83.429688 198.171875 82.214844 C 196.863281 79.933594 194.949219 78.148438 192.53125 77.109375 C 189.863281 75.960938 186.84375 75.699219 183.96875 75.933594 C 180.898438 76.183594 178.117188 77.195312 175.214844 78.148438 C 172.449219 79.058594 169.554688 79.417969 166.664062 78.972656 C 163.75 78.527344 161.546875 76.949219 159.089844 75.449219 C 156.574219 73.914062 153.699219 72.910156 150.726562 73.140625 C 147.949219 73.355469 145.390625 74.503906 143.097656 76.035156 C 140.949219 77.46875 139.175781 79.191406 138.175781 81.617188 C 137.097656 84.226562 137.101562 87.089844 138.871094 89.394531 C 141.4375 92.738281 146.199219 93.605469 150.160156 93.519531 C 152.453125 93.46875 154.703125 93.050781 156.867188 92.289062 C 159.753906 91.277344 162.246094 89.554688 164.949219 88.15625 C 166.214844 87.503906 167.523438 86.964844 168.898438 86.578125 C 170.230469 86.199219 171.539062 86.027344 172.746094 86.832031 C 174.023438 87.683594 175.164062 88.519531 176.625 89.054688 C 178.027344 89.566406 179.507812 89.851562 181 89.839844 C 183.902344 89.820312 186.765625 88.914062 189.582031 88.304688 C 191.882812 87.8125 194.339844 87.320312 196.6875 87.792969 C 197.664062 87.996094 199.089844 88.402344 199.445312 89.417969 C 193.5 90.496094 191.164062 97.851562 192.839844 103.246094 C 193.746094 106.160156 199.183594 109.566406 201.296875 108.035156 C 202.636719 107.0625 201.824219 105.789062 201.296875 104.949219 C 200.289062 103.339844 199.945312 101.269531 201.808594 100.148438 C 203.417969 99.183594 205.109375 101.480469 205.140625 101.476562 C 205.582031 101.441406 209.402344 99.28125 212.035156 96.125 C 214.632812 96.28125 215.027344 94.570312 214.40625 93.171875 C 213.785156 91.769531 209.917969 90.007812 207.828125 89.664062 Z M 207.828125 89.664062 " fill-opacity="1" fill-rule="nonzero"/><path fill="#ffffff" d="M 200.480469 98.8125 C 199.921875 95.769531 199.546875 89.433594 202.546875 87.515625 C 205.261719 85.78125 208.390625 87.515625 210.738281 90.457031 C 210.476562 90.367188 210.21875 90.277344 209.960938 90.1875 C 209.414062 89.992188 208.886719 89.808594 208.390625 89.691406 C 206.898438 88.542969 205.023438 88.003906 203.734375 89.0625 C 202.214844 90.304688 202.4375 94.679688 203.367188 98.257812 C 204.757812 98.835938 206.414062 100.042969 206.996094 101.832031 C 207.933594 104.699219 205.761719 107.984375 204.828125 108.289062 C 203.765625 108.636719 200.207031 107.222656 199.273438 104.355469 C 198.605469 102.316406 199.578125 100.046875 200.480469 98.8125 Z M 200.480469 98.8125 " fill-opacity="1" fill-rule="nonzero"/><path fill="#33606a" d="M 193.082031 113.578125 C 193.082031 113.578125 208.984375 115.746094 208.984375 115.746094 C 208.984375 115.746094 219.242188 131.84375 219.242188 131.84375 C 219.242188 131.84375 213.316406 137.429688 213.316406 137.429688 C 213.316406 137.429688 212.597656 146.824219 212.597656 146.824219 C 212.597656 146.824219 188.75 150.4375 188.75 150.4375 C 188.75 150.4375 186.582031 144.65625 186.582031 144.65625 C 186.582031 144.65625 183.6875 148.992188 183.6875 148.992188 C 183.6875 148.992188 171.402344 137.429688 171.402344 137.429688 C 171.402344 137.429688 193.082031 113.578125 193.082031 113.578125 Z M 193.082031 113.578125 " fill-opacity="1" fill-rule="nonzero"/><path fill="#33606a" d="M 191.640625 164.886719 C 191.640625 164.886719 213.320312 163.441406 213.320312 163.441406 C 213.320312 163.441406 235.964844 184.445312 235.964844 184.445312 C 235.964844 184.445312 211.371094 196.640625 211.371094 196.640625 C 211.371094 196.640625 206.066406 193.070312 206.066406 193.070312 C 206.066406 193.070312 202.277344 199.542969 202.277344 199.542969 C 202.277344 199.542969 177.910156 193.070312 177.910156 193.070312 C 177.910156 193.070312 191.640625 164.886719 191.640625 164.886719 Z M 191.640625 164.886719 " fill-opacity="1" fill-rule="nonzero"/><path stroke-linecap="butt" transform="matrix(1.559788, 0, 0, 1.559788, 180.860437, 143.893886)" fill="none" stroke-linejoin="miter" d="M 14.702341 -26.099892 C 15.215732 -22.896832 15.303385 -13.510539 21.727035 -10.600488 C 23.700461 -9.70894 25.591243 -10.835896 25.776564 -12.676592 C 26.217329 -17.084243 17.194167 -18.717077 18.977262 -3.114994 C 21.727035 20.934251 0.447597 22.952755 -13.135982 16.751992 C -20.65904 13.318532 -26.218691 20.839086 -23.033162 26.10072 " stroke="#ffffff" stroke-width="1" stroke-opacity="1" stroke-miterlimit="4"/></svg>